<svg width="60" height="60" viewBox="0 0 60 60" fill="none" xmlns="http://www.w3.org/2000/svg">
<path d="M23.2617 11.043C23.2617 8.81359 21.4481 7 19.2188 7H12.4805V15.0859H19.2188C21.4481 15.0859 23.2617 13.2724 23.2617 11.043ZM30 20.6562C32.4167 20.6562 35.0812 19.8413 38.0358 17.6656C36.62 16.8051 33.5855 15.2656 30 15.2656C26.4143 15.2656 23.3797 16.8051 21.9641 17.6656C26.0432 20.6461 29.1175 20.6562 30 20.6562Z" fill="#EA558F"/>
<path d="M53 27.3945C53 22.1934 48.6777 17.9609 43.4766 17.9609H42.1519C39.0657 20.2413 35.6173 23.3516 30 23.3516C24.4801 23.3516 20.9871 20.2807 17.8471 17.9609H16.5234C11.3223 17.9609 7 22.1934 7 27.3945C7 30.0245 8.17704 32.4012 9.91938 34.1139C9.83075 33.6765 9.78579 33.2314 9.78516 32.7852C9.78516 29.0698 12.8069 26.0469 16.5234 26.0469C17.9346 26.0469 19.2615 26.3802 20.4649 26.938L18.2555 29.1474C17.7284 28.8952 17.1458 28.7422 16.5234 28.7422C14.2941 28.7422 12.4805 30.5558 12.4805 32.7852C12.4805 35.0145 14.2941 36.8281 16.5234 36.8281C18.7528 36.8281 20.5664 35.0145 20.5664 32.7852C20.5664 32.1628 20.4134 31.5802 20.1612 31.0531L22.758 28.4563C24.7043 30.1856 25.957 32.6785 25.957 35.4805C25.957 45.7471 23.4276 51.0009 23.4012 51.0535L22.4432 53L37.5542 52.996L36.5988 51.0535C36.5724 51.0009 34.043 45.7471 34.043 35.4805C34.043 32.7701 35.2639 30.2577 37.2692 28.4834L39.8542 31.0685C39.5997 31.6058 39.4336 32.175 39.4336 32.7852C39.4336 35.0145 41.2472 36.8281 43.4766 36.8281C45.7059 36.8281 47.5195 35.0145 47.5195 32.7852C47.5195 30.5558 45.7059 28.7422 43.4766 28.7422C42.8722 28.7422 42.3045 28.9065 41.7623 29.1653L39.5346 26.9375C40.7757 26.3599 42.1107 26.0469 43.4766 26.0469C47.1931 26.0469 50.2148 29.0698 50.2148 32.7852C50.2148 33.2402 50.167 33.684 50.0806 34.1139C51.823 32.4012 53 30.0245 53 27.3945ZM46.1719 12.3906V9.69531H25.8208C26.0024 10.5846 26.0024 11.5014 25.8208 12.3906H46.1719Z" fill="#EA558F"/>
</svg>
