<svg width="60" height="60" viewBox="0 0 60 60" fill="none" xmlns="http://www.w3.org/2000/svg">
<path d="M36.9448 31.2578C41.468 31.2578 45.1477 27.578 45.1477 23.0549C45.1477 18.5319 41.4679 14.8521 36.9448 14.8521C32.4218 14.8521 28.742 18.5319 28.742 23.0549C28.742 27.578 32.4217 31.2578 36.9448 31.2578ZM32.7548 20.8724L34.7074 18.9198L36.9173 21.1298L39.1273 18.9198L41.0798 20.8724L38.8699 23.0824L41.0798 25.2923L39.1273 27.2449L36.9173 25.0349L34.7074 27.2449L32.7548 25.2923L34.9647 23.0824L32.7548 20.8724ZM22.8708 31.6376L19.4664 33.9278C18.2845 34.7229 17.5278 35.9921 17.3904 37.4099C17.2977 38.3558 17.4918 39.3077 17.9477 40.1417C16.7963 41.5017 16.5382 42.7141 16.3266 43.7106C16.1139 44.7126 15.9601 45.4365 14.9606 46.4361C13.9611 47.4355 13.237 47.5893 12.2351 47.802C11.1095 48.0411 9.70873 48.3385 8.1306 49.9166L6.5 51.5473L8.45258 53.4999L10.0832 51.8693C11.0827 50.8697 11.8067 50.716 12.8087 50.5033C13.9343 50.2643 15.3351 49.9669 16.9132 48.3887C18.4914 46.8106 18.7888 45.4098 19.0279 44.2842C19.2017 43.4651 19.3369 42.8316 19.9262 42.0816C20.6012 42.4336 21.3511 42.6173 22.1123 42.6171C22.266 42.6171 22.4204 42.6096 22.5751 42.5946C23.9929 42.4572 25.2621 41.7006 26.0572 40.5186L28.3475 37.1142C29.3983 35.5522 29.1948 33.4525 27.8637 32.1213C26.5327 30.7904 24.4328 30.587 22.8708 31.6376Z" fill="#EA558F"/>
<path d="M36.9451 6.5C27.8166 6.5 20.3901 13.9266 20.3901 23.0551C20.3901 25.1836 20.7912 27.2591 21.5653 29.1957C22.6198 28.548 23.8255 28.2066 25.0705 28.2065H25.0708C25.9129 28.2057 26.7477 28.3631 27.5317 28.6706C26.5476 27.027 25.9809 25.1061 25.9809 23.0551C25.9809 17.0093 30.8995 12.0908 36.9452 12.0908C42.9909 12.0908 47.9095 17.0094 47.9095 23.0551C47.9095 29.1008 42.9909 34.0193 36.9452 34.0193C34.8871 34.0193 32.96 33.4489 31.3127 32.4585C32.0646 34.3796 31.9117 36.5976 30.7857 38.427C32.7279 39.2061 34.8102 39.6101 36.9452 39.6101C46.0737 39.6101 53.5002 32.1836 53.5002 23.0551C53.5002 13.9266 46.0736 6.5 36.9451 6.5Z" fill="#EA558F"/>
</svg>
