<svg width="50" height="50" viewBox="0 0 50 50" fill="none" xmlns="http://www.w3.org/2000/svg">
<path d="M23.4375 9.375H24.2188V10.1562C24.2188 10.3635 24.3011 10.5622 24.4476 10.7087C24.5941 10.8552 24.7928 10.9375 25 10.9375C25.2072 10.9375 25.4059 10.8552 25.5524 10.7087C25.6989 10.5622 25.7812 10.3635 25.7812 10.1562V9.375H26.5625C26.7697 9.375 26.9684 9.29269 27.1149 9.14618C27.2614 8.99966 27.3438 8.80095 27.3438 8.59375C27.3438 8.38655 27.2614 8.18784 27.1149 8.04132C26.9684 7.89481 26.7697 7.8125 26.5625 7.8125H25.7812V7.03125C25.7812 6.82405 25.6989 6.62534 25.5524 6.47882C25.4059 6.33231 25.2072 6.25 25 6.25C24.7928 6.25 24.5941 6.33231 24.4476 6.47882C24.3011 6.62534 24.2188 6.82405 24.2188 7.03125V7.8125H23.4375C23.2303 7.8125 23.0316 7.89481 22.8851 8.04132C22.7386 8.18784 22.6562 8.38655 22.6562 8.59375C22.6562 8.80095 22.7386 8.99966 22.8851 9.14618C23.0316 9.29269 23.2303 9.375 23.4375 9.375Z" fill="#EA558F"/>
<path d="M46.0938 21.0938V17.9688H37.5V10.1563H38.2812V7.03133H30.2422C29.9065 5.90161 29.2148 4.91057 28.2702 4.20583C27.3256 3.50109 26.1785 3.12036 25 3.12036C23.8215 3.12036 22.6744 3.50109 21.7298 4.20583C20.7852 4.91057 20.0935 5.90161 19.7578 7.03133H11.7188V10.1563H12.5V17.9688H3.90625V21.0938H4.6875V42.9688H3.125V46.8751H46.875V42.9688H45.3125V21.0938H46.0938ZM28.9062 32.8126H21.0938V31.2501H28.9062V32.8126ZM29.6875 23.4376H32.8125V27.3438H29.6875V23.4376ZM23.4375 23.4376H26.5625V27.3438H23.4375V23.4376ZM23.4375 20.3126V16.4063H26.5625V20.3126H23.4375ZM20.3125 23.4376V27.3438H17.1875V23.4376H20.3125ZM17.1875 20.3126V16.4063H20.3125V20.3126H17.1875ZM32.8125 20.3126H29.6875V16.4063H32.8125V20.3126ZM25 4.68758C25.7726 4.68758 26.5278 4.91667 27.1702 5.3459C27.8126 5.77512 28.3132 6.38519 28.6089 7.09897C28.9046 7.81274 28.9819 8.59816 28.8312 9.3559C28.6805 10.1136 28.3084 10.8097 27.7621 11.356C27.2158 11.9023 26.5198 12.2743 25.7621 12.425C25.0043 12.5757 24.2189 12.4984 23.5051 12.2027C22.7914 11.9071 22.1813 11.4064 21.7521 10.764C21.3228 10.1216 21.0938 9.36641 21.0938 8.59383C21.0938 7.55782 21.5053 6.56425 22.2379 5.83169C22.9704 5.09913 23.964 4.68758 25 4.68758ZM10.9375 35.1563H7.8125V31.2501H10.9375V35.1563ZM10.9375 28.1251H7.8125V24.2188H10.9375V28.1251ZM21.0938 42.9688V34.3751H24.2188V42.9688H21.0938ZM25.7812 42.9688V34.3751H28.9062V42.9688H25.7812ZM42.1875 28.1251H39.0625V24.2188H42.1875V28.1251ZM42.1875 31.2501V35.1563H39.0625V31.2501H42.1875Z" fill="#EA558F"/>
</svg>
