<svg width="60" height="60" viewBox="0 0 60 60" fill="none" xmlns="http://www.w3.org/2000/svg">
<path d="M56.2091 11.2875C39.0982 6.26028 20.9024 6.26028 3.79156 11.2875C3.56572 11.3528 3.37263 11.5005 3.25056 11.7014C3.12849 11.9023 3.08636 12.1417 3.1325 12.3722L10.6662 49.8722C10.6912 49.9966 10.7412 50.1146 10.8132 50.2192C10.8851 50.3237 10.9775 50.4125 11.0848 50.4803C11.1921 50.548 11.312 50.5933 11.4373 50.6133C11.5626 50.6334 11.6907 50.6278 11.8137 50.5969C23.7491 47.5693 36.2515 47.5693 48.1869 50.5969C48.3099 50.6278 48.438 50.6334 48.5633 50.6133C48.6886 50.5933 48.8085 50.548 48.9158 50.4803C49.0231 50.4125 49.1155 50.3237 49.1875 50.2192C49.2594 50.1146 49.3094 49.9966 49.3344 49.8722L56.8681 12.3722C56.9143 12.1417 56.8721 11.9023 56.7501 11.7014C56.628 11.5005 56.4349 11.3528 56.2091 11.2875ZM45.7644 25.2431C45.7419 31.7091 44.855 35.1553 39.7016 39.451C37.2078 41.5303 33.3969 42.4763 29.8269 42.4763C26.5222 42.4763 23.4237 41.6653 21.7644 40.1925C18.7831 37.5441 18.4447 31.7184 18.4137 29.9297C17.2713 29.2323 16.0626 28.6497 14.8053 28.1906C14.0668 27.897 13.4753 27.322 13.1607 26.5922C12.8462 25.8624 12.8345 25.0375 13.1281 24.2991C13.4218 23.5606 13.9967 22.969 14.7265 22.6545C15.4564 22.34 16.2812 22.3282 17.0197 22.6219C19.1197 23.4263 21.8263 24.4875 22.8059 24.9778C24.2619 25.7053 25.8359 29.9794 26.7087 32.6972L29.1369 31.0791L27.7522 29.4656C27.652 29.3488 27.5821 29.209 27.5487 29.0588L26.2766 23.3334C26.1555 22.7833 26.25 22.2076 26.5406 21.725C26.8312 21.2424 27.2958 20.8895 27.8387 20.7391C28.3816 20.5887 28.9615 20.6522 29.459 20.9164C29.9565 21.1807 30.3338 21.6257 30.5131 22.1597L32.1359 27.0291L33.6172 26.7638C32.5804 25.7364 31.8534 24.4382 31.5193 23.0174C31.1853 21.5965 31.2575 20.1104 31.7279 18.7286C32.1983 17.3469 33.0479 16.1254 34.1795 15.2035C35.3111 14.2817 36.6792 13.6967 38.1275 13.5154C39.5758 13.3341 41.0458 13.5638 42.3698 14.1782C43.6937 14.7927 44.8182 15.7671 45.6146 16.9903C46.4111 18.2134 46.8475 19.6359 46.874 21.0952C46.9005 22.5546 46.516 23.9919 45.7644 25.2431Z" fill="#EA558F"/>
</svg>
