<svg width="60" height="60" viewBox="0 0 60 60" fill="none" xmlns="http://www.w3.org/2000/svg">
<g clip-path="url(#clip0_249_1749)">
<path d="M28.4999 5C22.8726 5 18.296 9.57858 18.296 15.2068C18.296 20.837 22.8736 25.4166 28.4999 25.4166C34.1262 25.4166 38.7048 20.837 38.7048 15.2068C38.7048 9.57858 34.1262 5 28.4999 5ZM36.3851 28.2973C36.7484 29.8689 37.3222 32.7261 37.1312 34.3828C38.6323 35.7135 42.5705 39.6361 41.7137 43.5067C41.7079 43.5527 41.3025 45.7784 38.5413 46.7233C38.4197 46.7656 38.2909 46.7833 38.1624 46.7755C38.0339 46.7677 37.9082 46.7344 37.7926 46.6777C37.677 46.6209 37.5739 46.5418 37.4891 46.445C37.4043 46.3481 37.3396 46.2353 37.2987 46.1133C37.2569 45.9916 37.2396 45.8628 37.2476 45.7344C37.2557 45.606 37.289 45.4804 37.3457 45.3649C37.4024 45.2494 37.4813 45.1462 37.5779 45.0612C37.6745 44.9762 37.7869 44.9112 37.9087 44.8697C39.5518 44.3077 39.7907 43.1425 39.7946 43.1317C40.3801 40.4772 37.4426 37.2547 35.8094 35.8222C33.855 36.771 30.1596 39.0985 30.0166 41.7638C30.0107 41.846 29.95 43.0259 31.363 43.9875C31.5779 44.1336 31.7259 44.359 31.7746 44.6143C31.8233 44.8695 31.7685 45.1336 31.6225 45.3485C31.4764 45.5634 31.2509 45.7115 30.9957 45.7601C30.7404 45.8088 30.4763 45.7541 30.2614 45.608C27.8458 43.965 28.0544 41.705 28.0632 41.6091C28.2855 37.4721 33.6924 34.6531 35.2013 33.9442C35.2914 32.4754 34.6814 29.442 34.2319 27.7284C34.2182 27.6746 34.228 27.6227 34.2221 27.5688C32.7674 27.1668 31.2655 26.9606 29.7562 26.9559H27.2426C25.5095 26.9559 23.8371 27.2202 22.2597 27.703C22.243 27.7725 22.2391 27.8449 22.2048 27.9125C22.1833 27.9566 20.0634 32.3569 19.05 39.0868C20.7527 39.5568 22.0139 41.1029 22.0139 42.9515C22.0126 44.0182 21.5883 45.0408 20.834 45.7951C20.0798 46.5493 19.0572 46.9736 17.9905 46.9749C16.9236 46.9739 15.9006 46.5497 15.146 45.7955C14.3914 45.0412 13.9667 44.0185 13.9651 42.9515C13.9651 41.049 15.2978 39.4579 17.0769 39.0427C17.7653 34.3016 18.9657 30.6914 19.7334 28.7213C14.0856 31.506 10.1807 37.3096 10.1807 44.0227V51.0208C10.1807 51.2805 10.2838 51.5296 10.4675 51.7132C10.6511 51.8968 10.9001 52 11.1598 52H45.8439C46.3854 52 46.823 51.5486 46.823 51.0071V44.0227C46.8211 36.9629 42.5128 30.8901 36.3851 28.2973Z" fill="#EA558F"/>
</g>
<defs>
<clipPath id="clip0_249_1749">
<rect width="47" height="47" fill="white" transform="translate(5 5)"/>
</clipPath>
</defs>
</svg>
