<svg width="47" height="47" viewBox="0 0 47 47" fill="none" xmlns="http://www.w3.org/2000/svg">
<g clip-path="url(#clip0_249_1930)">
<path d="M29.8939 9.46646C30.9972 9.10337 31.7941 8.06522 31.7941 6.84036C31.7941 5.61551 30.9972 4.57736 29.8939 4.21435C29.0318 2.11732 27.1686 0.5384 24.8991 0.0715332L24.8312 0.301741C24.8189 0.347359 24.0301 3.48641 25.5006 4.22163L24.2643 6.69448C22.7418 5.93317 21.8814 4.34982 21.8415 2.23556C21.8251 1.36385 21.9448 0.578396 22.045 0.0834214C19.801 0.564665 17.9613 2.13465 17.1062 4.21435C16.0027 4.57736 15.2059 5.61551 15.2059 6.84036C15.2059 8.06522 16.0027 9.10346 17.1061 9.46646C18.14 11.9811 20.6126 13.7521 23.5 13.7521C26.3874 13.7521 28.86 11.9811 29.8939 9.46646ZM0 46.9286H5.52941V38.6345H8.29412V46.9286H11.0588V22.0462H0V46.9286Z" fill="#EA558F"/>
<path d="M38.7057 13.7522H8.29395V16.5169H13.8234V46.9287H17.9704V33.1051H29.0292V46.9287H33.1763V16.5169H38.7057V13.7522ZM27.6469 26.1934H24.8822V28.9581H22.1175V26.1934H19.3528V23.4287H22.1175V20.664H24.8822V23.4287H27.6469V26.1934Z" fill="#EA558F"/>
<path d="M35.9412 22.0461V46.9285H38.7059V38.6344H41.4706V46.9285H47.0001V22.0461H35.9412ZM20.7354 35.8697H26.2648V46.9285H20.7354V35.8697Z" fill="#EA558F"/>
</g>
<defs>
<clipPath id="clip0_249_1930">
<rect width="47" height="47" fill="white"/>
</clipPath>
</defs>
</svg>
