<svg width="50" height="50" viewBox="0 0 50 50" fill="none" xmlns="http://www.w3.org/2000/svg">
<g clip-path="url(#clip0_249_1951)">
<path d="M14.9668 23.7598L18.3523 19.2456C20.3269 16.6124 24.3466 17.0251 25.7919 19.9168L28.8851 26.103L29.3254 25.5159C30.1501 24.4163 31.4632 23.7597 32.8378 23.7597H48.5546C55.8562 5.49053 33.5514 -4.55285 24.9999 10.3506C16.4512 -4.5508 -5.85629 5.48692 1.44525 23.7597H14.9668V23.7598ZM31.6476 37.055C29.6869 39.6691 25.6644 39.2977 24.208 36.3837L21.1148 30.1976L20.6745 30.7847C19.8498 31.8844 18.5367 32.541 17.1621 32.541H6.76482C8.31711 34.4088 10.1491 36.2857 12.2742 38.1628C18.2131 43.4088 24.0652 46.5538 24.3113 46.6851C24.5233 46.7981 24.7598 46.8573 25 46.8573C25.2402 46.8573 25.4767 46.7981 25.6887 46.6851C25.9348 46.5538 31.7869 43.4088 37.7257 38.1628C39.8508 36.2857 41.6829 34.4089 43.2352 32.541H35.0332L31.6476 37.055Z" fill="#EA558F"/>
<path d="M48.5135 26.6868H32.8376C32.6104 26.6868 32.3864 26.7397 32.1831 26.8414C31.9799 26.943 31.8032 27.0905 31.6668 27.2722L28.385 31.6481L23.1735 21.2255C22.6873 20.2529 21.3451 20.1333 20.6937 21.0019L16.4301 26.6868H1.48606C-0.455721 26.7642 -0.454258 29.5373 1.48606 29.6139H17.1619C17.3891 29.6139 17.6132 29.561 17.8164 29.4594C18.0196 29.3577 18.1964 29.2102 18.3327 29.0285L21.6146 24.6525L26.826 35.0751C27.315 36.0534 28.6573 36.1635 29.3058 35.2987L33.5694 29.6138H48.5135C50.4553 29.5366 50.4538 26.7635 48.5135 26.6868Z" fill="#EA558F"/>
</g>
<defs>
<clipPath id="clip0_249_1951">
<rect width="50" height="50" fill="white"/>
</clipPath>
</defs>
</svg>
